<svg width="24" height="25" viewBox="0 0 24 25" fill="none" xmlns="http://www.w3.org/2000/svg">
<g clip-path="url(#clip0)">
<path d="M23.3051 5.57197C22.8345 4.65635 22.1558 3.86384 21.3234 3.25812C20.491 2.65239 19.5281 2.25033 18.5121 2.08422C17.4962 1.91812 16.4554 1.99261 15.4735 2.3017C14.4915 2.61079 13.5957 3.14588 12.8581 3.86397L12.0001 4.64497L11.1721 3.89097C10.4361 3.15922 9.53629 2.61356 8.54722 2.29929C7.55814 1.98502 6.50837 1.9112 5.48505 2.08397C4.4676 2.24303 3.50274 2.64244 2.67055 3.24905C1.83837 3.85567 1.16285 4.652 0.700054 5.57197C0.0816291 6.78389 -0.134477 8.16136 0.0831055 9.50443C0.300688 10.8475 0.940634 12.0863 1.91005 13.041L11.2831 22.697C11.3762 22.7928 11.4877 22.869 11.6109 22.9211C11.734 22.9731 11.8664 22.9999 12.0001 22.9999C12.1337 22.9999 12.2661 22.9731 12.3892 22.9211C12.5124 22.869 12.6239 22.7928 12.7171 22.697L22.0761 13.059C23.0504 12.1038 23.6948 10.863 23.9158 9.5166C24.1368 8.17023 23.9229 6.78846 23.3051 5.57197ZM20.6571 11.648L12.3571 20.193C12.3105 20.2409 12.2547 20.279 12.1931 20.305C12.1316 20.331 12.0654 20.3444 11.9986 20.3444C11.9317 20.3444 11.8655 20.331 11.804 20.305C11.7424 20.279 11.6867 20.2409 11.6401 20.193L3.32705 11.633C2.65606 10.9752 2.21218 10.1207 2.05987 9.19357C1.90756 8.26639 2.05474 7.3148 2.48005 6.47697C2.80204 5.83835 3.27179 5.2858 3.85027 4.86525C4.42876 4.44469 5.09926 4.16827 5.80605 4.05897C6.52587 3.93786 7.26424 3.99116 7.9592 4.2144C8.65416 4.43764 9.28543 4.82431 9.80005 5.34197L11.3301 6.74197C11.5142 6.90978 11.7544 7.00278 12.0036 7.00278C12.2527 7.00278 12.4929 6.90978 12.6771 6.74197L14.2381 5.31897C14.7507 4.80899 15.3775 4.42865 16.0666 4.20951C16.7556 3.99037 17.487 3.93876 18.2001 4.05897C18.906 4.16886 19.5756 4.44556 20.1532 4.8661C20.7307 5.28663 21.1997 5.83887 21.5211 6.47697C21.9466 7.31854 22.0922 8.27399 21.9368 9.20412C21.7814 10.1343 21.333 10.9905 20.6571 11.648Z" fill="#848D9F"/>
</g>
<defs>
<clipPath id="clip0">
<rect width="24" height="24" fill="white" transform="translate(0 0.496948)"/>
</clipPath>
</defs>
</svg>
