<svg width="16" height="16" viewBox="0 0 16 16" version="1.1" xmlns="http://www.w3.org/2000/svg" xmlns:xlink="http://www.w3.org/1999/xlink"><title>info-18px</title><desc>Created using Figma</desc><g id="Canvas" transform="translate(-159 -536)"><g id="info-18px"><g id="Oval"><use xlink:href="#path0_stroke" transform="translate(159.5 536.5)" fill="#848D9F"/></g><g id="Shape"><use xlink:href="#path1_stroke" transform="translate(165.5 548.5)" fill="#848D9F"/></g><g id="Shape"><use xlink:href="#path2_stroke" transform="translate(165.5 543.5)" fill="#848D9F"/></g><g id="Shape"><use xlink:href="#path3_stroke" transform="translate(166.5 540)" fill="#848D9F"/></g></g></g><defs><path id="path0_stroke" d="M 7.5 15.5C 11.9183 15.5 15.5 11.9183 15.5 7.5L 14.5 7.5C 14.5 11.366 11.366 14.5 7.5 14.5L 7.5 15.5ZM 15.5 7.5C 15.5 3.08172 11.9183 -0.5 7.5 -0.5L 7.5 0.5C 11.366 0.5 14.5 3.63401 14.5 7.5L 15.5 7.5ZM 7.5 -0.5C 3.08172 -0.5 -0.5 3.08172 -0.5 7.5L 0.5 7.5C 0.5 3.63401 3.63401 0.5 7.5 0.5L 7.5 -0.5ZM -0.5 7.5C -0.5 11.9183 3.08172 15.5 7.5 15.5L 7.5 14.5C 3.63401 14.5 0.5 11.366 0.5 7.5L -0.5 7.5Z"/><path id="path1_stroke" d="M 0 -0.5C -0.276142 -0.5 -0.5 -0.276142 -0.5 0C -0.5 0.276142 -0.276142 0.5 0 0.5L 0 -0.5ZM 4 0.5C 4.27614 0.5 4.5 0.276142 4.5 0C 4.5 -0.276142 4.27614 -0.5 4 -0.5L 4 0.5ZM 0 0.5L 4 0.5L 4 -0.5L 0 -0.5L 0 0.5Z"/><path id="path2_stroke" d="M 0 -0.5C -0.276142 -0.5 -0.5 -0.276142 -0.5 0C -0.5 0.276142 -0.276142 0.5 0 0.5L 0 -0.5ZM 2 0L 2.5 0C 2.5 -0.276142 2.27614 -0.5 2 -0.5L 2 0ZM 1.5 4.5C 1.5 4.77614 1.72386 5 2 5C 2.27614 5 2.5 4.77614 2.5 4.5L 1.5 4.5ZM 0 0.5L 2 0.5L 2 -0.5L 0 -0.5L 0 0.5ZM 1.5 0L 1.5 4.5L 2.5 4.5L 2.5 0L 1.5 0Z"/><path id="path3_stroke" d="M 0.5 -0.5C 0.223858 -0.5 0 -0.276142 0 0C 0 0.276142 0.223858 0.5 0.5 0.5L 0.5 -0.5ZM 0.5 -0.5C -0.0544437 -0.5 -0.5 -0.0498393 -0.5 0.5L 0.5 0.5L 0.5 -0.5ZM -0.5 0.5C -0.5 1.05314 -0.0531424 1.5 0.5 1.5L 0.5 0.5L -0.5 0.5ZM 0.5 1.5C 1.04984 1.5 1.5 1.05444 1.5 0.5L 0.5 0.5L 0.5 1.5ZM 1.5 0.5C 1.5 -0.0511424 1.05114 -0.5 0.5 -0.5L 0.5 0.5L 1.5 0.5Z"/></defs></svg>