<svg xmlns="http://www.w3.org/2000/svg" xmlns:xlink="http://www.w3.org/1999/xlink" width="62" height="62" viewBox="0 0 62 62">
    <defs>
        <path id="b" d="M12 0C5.383 0 0 5.383 0 12c0 6.616 5.383 12 12 12 6.616 0 12-5.384 12-12 0-6.617-5.384-12-12-12z"/>
        <filter id="a" width="366.7%" height="366.7%" x="-133.3%" y="-116.7%" filterUnits="objectBoundingBox">
            <feOffset dy="4" in="SourceAlpha" result="shadowOffsetOuter1"/>
            <feGaussianBlur in="shadowOffsetOuter1" result="shadowBlurOuter1" stdDeviation="10"/>
            <feColorMatrix in="shadowBlurOuter1" values="0 0 0 0 0 0 0 0 0 0 0 0 0 0 0 0 0 0 0.16 0"/>
        </filter>
    </defs>
    <g fill="none" fill-rule="evenodd">
        <path d="M19 15h24v24H19z"/>
        <g fill-rule="nonzero" transform="translate(19 15)">
            <use fill="#000" filter="url(#a)" xlink:href="#b"/>
            <use fill="#FFF" fill-rule="evenodd" xlink:href="#b"/>
        </g>
        <path stroke="#848D9F" stroke-linejoin="round" d="M31 33s5.5-4 5.5-6.963c0-3.419-4.5-4.5-5.5-.341-1-4.159-5.5-3.078-5.5.341C25.5 29 31 33 31 33z"/>
    </g>
</svg>
