<svg width="22" height="30" viewBox="0 0 22 30" fill="none" xmlns="http://www.w3.org/2000/svg"><path d="M13.1213 5.12132C14.2929 3.94975 14.2929 2.05027 13.1213 0.8787C11.9498 -0.2929 10.0502 -0.2929 8.87866 0.8787C7.70709 2.05027 7.70709 3.94975 8.87866 5.12132C9.46271 5.70539 10.2277 5.9983 10.9932 6.00001H6.06152C5.1438 6.00001 4.34387 6.62461 4.12128 7.51493L4 8.00001H18L17.8787 7.51493C17.6561 6.62461 16.8562 6.00001 15.9385 6.00001H11.0068C11.7723 5.9983 12.5373 5.70539 13.1213 5.12132Z" fill="white"/><path d="M7 26L7.58075 28.4596C7.79388 29.3623 8.59967 30 9.52722 30H12.4728C13.4003 30 14.2061 29.3623 14.4193 28.4596L15 26H7Z" fill="white"/><path fill-rule="evenodd" clip-rule="evenodd" d="M0 12C0 10.8954 0.895447 10 2 10H20C21.1046 10 22 10.8954 22 12V22C22 23.1046 21.1046 24 20 24H2C0.895447 24 0 23.1046 0 22V12ZM9.271 12C8.63556 12 8.00433 12.121 7.41431 12.3577L5.62878 13.0714C5.11597 13.2765 4.86646 13.8584 5.07147 14.3712C5.27649 14.884 5.8584 15.1336 6.37122 14.9286L8.15845 14.2141C8.51019 14.0729 8.88873 14 9.271 14H10V16H9.46393C8.94299 16 8.43665 16.1302 7.97363 16.3705L6.54053 17.1118C6.05005 17.3656 5.85809 17.9689 6.11182 18.4595C6.3656 18.95 6.96893 19.1419 7.45947 18.8882L8.89319 18.1466L8.89453 18.1459C9.08862 18.0451 9.2807 18 9.46393 18H10V20H9C8.44769 20 8 20.4477 8 21C8 21.5523 8.44769 22 9 22H13C13.5523 22 14 21.5523 14 21C14 20.4477 13.5523 20 13 20H12V18H12.5361C12.7194 18 12.9114 18.0451 13.1055 18.1459L14.5405 18.8882C15.0311 19.1419 15.6345 18.95 15.8882 18.4595C16.142 17.9689 15.95 17.3656 15.4595 17.1118L14.0264 16.3705C13.5634 16.1302 13.057 16 12.5361 16H12V14H12.729C13.1113 14 13.4898 14.0729 13.8416 14.2141L15.6288 14.9286C16.1416 15.1336 16.7235 14.884 16.9285 14.3712C17.1335 13.8584 16.884 13.2765 16.3712 13.0714L14.5858 12.3577C13.9957 12.121 13.3644 12 12.729 12H9.271Z" fill="white"/></svg>