<svg width="28" height="29" viewBox="0 0 28 29" fill="none" xmlns="http://www.w3.org/2000/svg"><path d="M22.5871 19.4029C22.4072 19.4186 22.2296 19.4271 22.0426 19.4271C21.8555 19.4271 21.678 19.4186 21.498 19.4029C21.1702 19.3742 20.8816 19.6204 20.8533 19.9529C20.8517 19.9709 20.851 19.989 20.8511 20.0071V20.2396C20.8511 23.7431 18.0505 26.5833 14.5957 26.5833C11.141 26.5833 8.34043 23.7431 8.34043 20.2396V16.8079C11.7758 16.216 14.2914 13.2006 14.2979 9.66667V6.04167C14.2923 3.89618 12.8908 2.01206 10.8581 1.41739C10.7783 1.3942 10.7234 1.32025 10.7234 1.23614V1.20834C10.7234 0.540993 10.19 4.11548e-06 9.53194 4.11548e-06C8.8739 4.11548e-06 8.34045 0.540993 8.34045 1.20834V4.22917C8.34045 4.89651 8.8739 5.4375 9.53194 5.4375C10.19 5.4375 10.7234 4.89651 10.7234 4.22917C10.7232 4.1744 10.7537 4.12427 10.8021 4.09988C10.8502 4.07553 10.9078 4.08067 10.951 4.11317C11.5558 4.56449 11.9135 5.28015 11.9149 6.04167V9.66667C11.9149 12.336 9.7811 14.5 7.14894 14.5C4.51677 14.5 2.38298 12.336 2.38298 9.66667V6.04167C2.38298 5.27844 2.74097 4.5603 3.34723 4.10808C3.39046 4.07558 3.44801 4.07044 3.49617 4.09479C3.54606 4.12006 3.5767 4.17265 3.57447 4.22916C3.57447 4.89651 4.10792 5.4375 4.76596 5.4375C5.424 5.4375 5.95745 4.89651 5.95745 4.22917V1.20833C5.95745 0.540989 5.424 0 4.76596 0C4.10792 0 3.57447 0.540989 3.57447 1.20833V1.23612C3.5749 1.32038 3.5198 1.39455 3.43983 1.41737C1.40712 2.01203 0.00557617 3.89617 0 6.04166V9.66666C0.00647915 13.2006 2.52204 16.216 5.95747 16.8079V20.2396C5.95747 25.0778 9.82497 29 14.5958 29C19.3666 29 23.2341 25.0778 23.2341 20.2396V20.0059C23.2353 19.6722 22.9695 19.4007 22.6405 19.3995C22.6227 19.3994 22.6049 19.4002 22.5871 19.4017L22.5871 19.4029Z" fill="white"/><path d="M5.95745 1.15236e-06C2.66724 1.29821e-06 0 2.70495 0 6.04167C1.4382e-07 9.37838 2.66724 12.0833 5.95745 12.0833C9.24765 12.0833 11.9149 9.37838 11.9149 6.04167V6.04168C11.911 2.70662 9.24603 0.00399958 5.95746 0L5.95745 1.15236e-06ZM5.95745 9.66666C3.98333 9.66666 2.38298 8.04369 2.38298 6.04167C2.38298 4.03964 3.98333 2.41667 5.95745 2.41667C7.93156 2.41667 9.53191 4.03964 9.53191 6.04167C9.53191 8.04369 7.93156 9.66666 5.95745 9.66666Z" transform="translate(16.0851 5.13538)" fill="white"/><path d="M3.051 0.530868C3.74895 1.23869 3.74895 2.3863 3.051 3.09413C2.35304 3.80195 1.22143 3.80195 0.523468 3.09413C-0.174489 2.38631 -0.174489 1.2387 0.523468 0.530868C1.22143 -0.176956 2.35303 -0.176956 3.051 0.530868Z" transform="translate(20.2553 9.36462)" fill="white"/></svg>