<svg width="30" height="27" viewBox="0 0 30 27" fill="none" xmlns="http://www.w3.org/2000/svg"><path d="M21.4797 0C19.2607 0 16.6473 1.1629 15 4.21909C13.3527 1.1629 10.7393 0 8.52032 0C4.82434 0 1 3.12708 1 8.36017C1 9.20859 1.16248 10.0948 1.4516 11H6.64587L7.31671 9.65836C7.82489 8.642 8.86371 8 10 8C10.8659 8 11.6751 8.37277 12.2361 8.99991L12.7426 7.81824C13.2332 6.6734 14.3802 5.95081 15.6247 6.00256C16.8691 6.05435 17.9521 6.86969 18.3461 8.0513L19.3525 11.0705C19.5622 11.0242 19.7791 11 20 11H28.5484C28.8375 10.0948 29 9.20859 29 8.36017C29 3.12708 25.1757 0 21.4797 0Z" fill="white"/><path d="M14.314 26.7731C13.9654 26.5155 8.59039 22.1105 4.77789 17H8.5C8.86517 17 9.22028 16.9337 9.5509 16.81L9.81671 17.3416C10.3391 18.3864 11.4205 19.033 12.5881 18.9987C13.6678 18.9669 14.6396 18.3584 15.1437 17.418L15.6539 18.9487C16.0558 20.1543 17.1738 20.976 18.4445 20.9995C19.7151 21.023 20.8627 20.2433 21.309 19.0533L22.079 17H25.2221C21.4096 22.1105 16.0346 26.5155 15.686 26.7731C15.4807 26.9267 15.2404 27 15 27C14.7596 27 14.517 26.9244 14.314 26.7731Z" fill="white"/><path d="M16.4487 8.68378C16.3174 8.28989 15.9564 8.01813 15.5416 8.00085C15.1267 7.98361 14.7444 8.22446 14.5809 8.60608L12.4302 13.6243L10.8944 10.5528C10.725 10.214 10.3788 10 10 10C9.62122 10 9.27496 10.214 9.10559 10.5528L7.88196 13H1C0.447693 13 0 13.4477 0 14C0 14.5523 0.447693 15 1 15H8.5C8.87878 15 9.22504 14.786 9.39441 14.4472L10 13.2361L11.6056 16.4472C11.7797 16.7955 12.1401 17.011 12.5294 16.9996C12.9186 16.9881 13.2657 16.7518 13.4191 16.3939L15.3831 11.8115L17.5513 18.3162C17.6853 18.7181 18.0579 18.992 18.4815 18.9998C18.905 19.0077 19.2876 18.7478 19.4363 18.3511L20.693 15H29C29.5523 15 30 14.5523 30 14C30 13.4477 29.5523 13 29 13H20C19.5831 13 19.21 13.2586 19.0637 13.6489L18.5555 15.0041L16.4487 8.68378Z" fill="white"/></svg>