<svg width="28" height="26" viewBox="0 0 28 26" fill="none" xmlns="http://www.w3.org/2000/svg"><path fill-rule="evenodd" clip-rule="evenodd" d="M0 11.5482C0 5.18109 6.28015 0 14 0C21.7187 0 28 5.18109 28 11.5482C28 17.9153 21.7198 23.0953 14 23.0953C12.4005 23.0953 10.836 22.8756 9.34497 22.4432L1.83514 25.9429C1.34283 26.1766 0.81781 25.6496 1.0675 25.1518L3.87915 19.5302C1.37317 17.3732 0 14.5547 0 11.5482ZM10 9C9.44769 9 9 9.44772 9 10C9 10.5523 9.44769 11 10 11H16C16.5523 11 17 10.5523 17 10C17 9.44772 16.5523 9 16 9H10ZM9 14C9 13.4477 9.44769 13 10 13H19C19.5523 13 20 13.4477 20 14C20 14.5523 19.5523 15 19 15H10C9.44769 15 9 14.5523 9 14Z" fill="white"/></svg>