<svg width="21" height="28" viewBox="0 0 21 28" fill="none" xmlns="http://www.w3.org/2000/svg"><path fill-rule="evenodd" clip-rule="evenodd" d="M14 0.5L20.5 7C20.5 7 21 7.5 21 8V26C21 27 20 28 19 28H2C1 28 0 27 0 26V2C0 1 1 0 2 0H13C13.2125 0 13.3347 0 13.4433 0.0383606C13.5903 0.0903015 13.7125 0.212463 14 0.5ZM5 24H16C16.5 24 17 23.5 17 23C17 22.5 16.5 22 16 22H5C4.5 22 4 22.5 4 23C4 23.5 4.5 24 5 24ZM13 7C13 7.5 13.5 8 14 8H19L13 2V7ZM11 10C11.5523 10 12 10.4477 12 11V13H14C14.5523 13 15 13.4477 15 14V15C15 15.5523 14.5523 16 14 16H12V18C12 18.5523 11.5523 19 11 19H10C9.44769 19 9 18.5523 9 18V16H7C6.44769 16 6 15.5523 6 15V14C6 13.4477 6.44769 13 7 13H9V11C9 10.4477 9.44769 10 10 10H11Z" fill="white"/></svg>