<svg width="32" height="24" viewBox="0 0 32 24" fill="none" xmlns="http://www.w3.org/2000/svg"><path fill-rule="evenodd" clip-rule="evenodd" d="M15.7214 5.38391C15.5912 5.05322 15.4291 4.73218 15.2352 4.42078C14.645 3.47363 13.8574 2.73547 12.8709 2.20679L13.8522 0.317261C13.9169 0.192139 13.8937 0.0960693 13.7832 0.0288086C13.6633 -0.0288086 13.5711 0 13.5068 0.115479L12.5114 2.01929C11.6357 1.61548 10.7098 1.41345 9.7326 1.41345C8.75568 1.41345 7.82941 1.61548 6.9538 2.01929L5.9585 0.115601C5.89423 0 5.80182 -0.0288086 5.68201 0.0288086C5.57135 0.0961914 5.54846 0.192383 5.61292 0.317261L6.59454 2.20679C5.59912 2.7356 4.80664 3.47363 4.21661 4.42078C3.62677 5.36792 3.33179 6.40405 3.33179 7.52881H12.699C13.4795 6.55725 14.5298 5.81787 15.7214 5.38391ZM6.81567 5.12024C6.9632 5.12024 7.08984 5.06494 7.19574 4.95422C7.30176 4.84363 7.3548 4.71167 7.3548 4.55774C7.3548 4.40393 7.30176 4.27161 7.19574 4.16089C7.08972 4.05029 6.96301 3.99524 6.81567 3.99524C6.66821 3.99524 6.54376 4.05029 6.44232 4.16089C6.34106 4.27161 6.29028 4.40393 6.29028 4.55774C6.29028 4.71155 6.34106 4.84375 6.44232 4.95422C6.54395 5.06494 6.66821 5.12024 6.81567 5.12024ZM12.6498 5.12024C12.7971 5.12024 12.9215 5.06494 13.0231 4.95422C13.1244 4.84363 13.1752 4.71167 13.1752 4.55774C13.1752 4.40393 13.1243 4.27161 13.0231 4.16089C12.9215 4.05029 12.7971 3.99524 12.6498 3.99524C12.5021 3.99524 12.3757 4.05029 12.2697 4.16089C12.1637 4.27161 12.1108 4.40393 12.1108 4.55774C12.1108 4.71155 12.1637 4.84375 12.2697 4.95422C12.3757 5.06494 12.5021 5.12024 12.6498 5.12024Z" fill="white"/><path d="M12.1061 8.40002H3.38751V17.6542C3.38751 18.0964 3.53497 18.4714 3.8299 18.7792C4.12488 19.0864 4.48425 19.2402 4.90826 19.2402H5.93134L5.94531 22.5145C5.94531 22.928 6.08356 23.2787 6.35992 23.5673C6.63629 23.8558 6.9682 24 7.35522 24C7.75177 24 8.08813 23.8558 8.36469 23.5673C8.64117 23.2787 8.7793 22.928 8.7793 22.5145V19.2402H10.6871V22.5145C10.6871 22.928 10.8252 23.2787 11.1016 23.5673C11.3784 23.8558 11.7147 24 12.1111 24C12.5072 24 12.8436 23.8558 13.1199 23.5673C13.3963 23.2787 13.5344 22.928 13.5344 22.5145V21.0089C11.3591 17.6569 9.87701 12.2053 12.1061 8.40002Z" fill="white"/><path d="M0.414612 8.20679C0.69104 7.91821 1.02783 7.77405 1.42407 7.77405C1.81091 7.77405 2.14301 7.91833 2.41937 8.20679C2.69574 8.49524 2.83417 8.84119 2.83417 9.24524V15.4475C2.83417 15.8607 2.69812 16.2115 2.42621 16.5001C2.1543 16.7887 1.82031 16.9327 1.42389 16.9327C1.02753 16.9327 0.69104 16.7887 0.414612 16.5001C0.138245 16.2115 0 15.8607 0 15.4475V9.24524C0 8.84131 0.138245 8.49536 0.414612 8.20679Z" fill="white"/><path d="M26.3521 3.64111C27.244 2.6311 27.6862 1.32263 27.5828 0C26.2354 0.125244 24.9886 0.742798 24.0983 1.72583C23.2028 2.69006 22.751 3.96301 22.8459 5.25403C24.2112 5.27112 25.507 4.67505 26.3521 3.64111Z" fill="white"/><path d="M28.9904 12.6761C29.0092 10.9946 29.9235 9.44055 31.4108 8.56213C30.4665 7.27014 28.9498 6.47827 27.3114 6.42188C26.2426 6.3175 25.2083 6.71155 24.3634 7.03333C23.827 7.23767 23.366 7.41321 23.0218 7.41321C22.6379 7.41321 22.1643 7.23132 21.6333 7.02734C20.9383 6.76038 20.1448 6.45569 19.3254 6.47144C17.3928 6.52429 15.6314 7.55334 14.6883 9.18079C12.7131 12.4858 14.1844 17.385 16.1103 20.0674C17.05 21.3789 18.1738 22.8531 19.6462 22.7986C20.3054 22.7737 20.7736 22.5813 21.2579 22.3823L21.2589 22.3818C21.8176 22.1526 22.3979 21.9143 23.3179 21.9143C24.1964 21.9143 24.7507 22.1454 25.2839 22.3678C25.7935 22.5803 26.2838 22.7849 27.0194 22.7717C28.5463 22.745 29.5138 21.4354 30.4474 20.119C31.1159 19.1722 31.6389 18.1371 31.9999 17.0459C30.1817 16.2994 28.9984 14.5815 28.9904 12.6761Z" fill="white"/></svg>