<svg width="80" height="80" viewBox="0 0 80 80" fill="none" xmlns="http://www.w3.org/2000/svg">
<path d="M22.3333 32C20.4924 32 19 30.5076 19 28.6667V5.33333C19 3.4924 20.4924 2 22.3333 2H55.6667C57.5076 2 59 3.4924 59 5.33333V28.6667C59 30.5076 57.5076 32 55.6667 32H22.3333Z" stroke="#848D9F" stroke-width="2" stroke-linecap="round" stroke-linejoin="round"/>
<path d="M20 3.0065L36.9873 15.35V15.35C38.18 16.2167 39.82 16.2167 41.0127 15.35L58 3" stroke="#848D9F" stroke-width="2" stroke-linecap="round" stroke-linejoin="round"/>
<path d="M39 48V77" stroke="#848D9F" stroke-width="2" stroke-linecap="round" stroke-linejoin="round"/>
<path d="M29 41V64" stroke="#848D9F" stroke-width="2" stroke-linecap="round" stroke-linejoin="round"/>
<path d="M49 41V64" stroke="#848D9F" stroke-width="2" stroke-linecap="round" stroke-linejoin="round"/>
<path d="M59 10.192L71.0802 4.34777V4.34777C72.7599 3.5354 74.8021 4.19475 75.6414 5.82046C75.877 6.27668 75.9997 6.77963 76 7.28963V9.60955V9.60944C75.9992 10.9548 75.1523 12.1641 73.8615 12.6633L67.5 15.128L69.608 16.4903V16.4903C71.1709 17.4976 71.5943 19.5405 70.5535 21.0532C70.5186 21.1039 70.4822 21.1538 70.4444 21.2026L68.52 23.6837V23.6837C67.8779 24.5123 66.8702 25 65.8 25" stroke="#848D9F" stroke-width="2" stroke-linecap="round" stroke-linejoin="round"/>
<path d="M19 10.192L6.91979 4.34777V4.34777C5.24006 3.5354 3.19794 4.19475 2.35858 5.82046C2.12304 6.27668 2.00028 6.77963 2 7.28963V9.60955V9.60944C2.00083 10.9548 2.8477 12.1641 4.13849 12.6633L10.5 15.128L8.392 16.4903V16.4903C6.82905 17.4976 6.40573 19.5405 7.4465 21.0532C7.48143 21.1039 7.51781 21.1538 7.5556 21.2026L9.48 23.6837V23.6837C10.1221 24.5123 11.1298 25 12.2 25" stroke="#848D9F" stroke-width="2" stroke-linecap="round" stroke-linejoin="round"/>
</svg>
