<?xml version="1.0" encoding="utf-8"?>
<!-- Generator: Adobe Illustrator 19.0.0, SVG Export Plug-In . SVG Version: 6.00 Build 0)  -->
<svg version="1.1" id="Слой_1" xmlns="http://www.w3.org/2000/svg" xmlns:xlink="http://www.w3.org/1999/xlink" x="0px" y="0px"
	 width="49.3px" height="61px" viewBox="0 0 49.3 61" style="enable-background:new 0 0 49.3 61;" xml:space="preserve">
<style type="text/css">
	.st0{clip-path:url(#SVGID_2_);fill:#00AEC7;}
	.st1{clip-path:url(#SVGID_2_);fill:#FF256C;}
	.st2{clip-path:url(#SVGID_2_);fill:#702C63;}
</style>
<g>
	<defs>
		<rect id="SVGID_1_" x="0" width="49.3" height="61"/>
	</defs>
	<clipPath id="SVGID_2_">
		<use xlink:href="#SVGID_1_"  style="overflow:visible;"/>
	</clipPath>
	<path class="st0" d="M37.7,61c-6.4,0-11.6-5.2-11.6-11.6c0-6.4,5.2-11.6,11.6-11.6c6.4,0,11.6,5.2,11.6,11.6
		C49.3,55.8,44.1,61,37.7,61 M37.7,43.6c-3.2,0-5.8,2.6-5.8,5.8c0,3.2,2.6,5.8,5.8,5.8c3.2,0,5.8-2.6,5.8-5.8
		C43.5,46.2,40.9,43.6,37.7,43.6"/>
	<path class="st0" d="M24.6,27.5C11.1,27.5,0,16.5,0,2.9C0,1.3,1.3,0,2.9,0c1.6,0,2.9,1.3,2.9,2.9c0,10.4,8.5,18.9,18.9,18.9
		s18.9-8.5,18.9-18.9c0-1.6,1.3-2.9,2.9-2.9s2.9,1.3,2.9,2.9C49.3,16.5,38.2,27.5,24.6,27.5"/>
	<path class="st1" d="M29,52.3H9.1c-5,0-9.1-4.1-9.1-9.1s4.1-9.1,9.1-9.1h3.2c5.2,0,9.4-4.2,9.4-9.4c0-1.6,1.3-2.9,2.9-2.9
		c1.6,0,2.9,1.3,2.9,2.9c0,8.4-6.8,15.2-15.2,15.2H9.1c-1.8,0-3.3,1.5-3.3,3.3c0,1.8,1.5,3.3,3.3,3.3H29c1.6,0,2.9,1.3,2.9,2.9
		C31.8,51,30.6,52.3,29,52.3"/>
	<path class="st2" d="M31.8,49.4L31.8,49.4L31.8,49.4c0-1.6-1.3-2.9-2.9-2.9h-2.5c-0.2,0.9-0.4,1.9-0.4,2.9c0,1,0.1,2,0.4,2.9H29
		C30.6,52.3,31.8,51,31.8,49.4"/>
	<path class="st2" d="M21.8,24.6c0,0.9-0.1,1.8-0.4,2.7c1.1,0.1,2.2,0.2,3.3,0.2c0.9,0,1.8,0,2.6-0.1c0.2-0.9,0.3-1.8,0.3-2.7
		c0-1.6-1.3-2.9-2.9-2.9C23.1,21.8,21.8,23.1,21.8,24.6"/>
</g>
</svg>
